<svg width="15" height="15" viewBox="0 0 15 15" fill="none" xmlns="http://www.w3.org/2000/svg">
<path d="M11.6426 9.22546C11.4563 9.40043 11.3703 9.65868 11.414 9.90434L12.0511 13.3477C12.102 13.6416 11.9802 13.9349 11.7286 14.1036C11.4849 14.2785 11.1624 14.2995 10.8901 14.1595L7.71599 12.5428C7.60061 12.4869 7.47878 12.4512 7.35766 12.4512H7.16344C7.09178 12.4582 7.02799 12.4869 6.96994 12.5142L3.79511 14.1386C3.63744 14.2155 3.45828 14.2435 3.28628 14.2155C2.85628 14.1316 2.57749 13.7389 2.64844 13.326L3.28628 9.88264C3.32928 9.63139 3.24328 9.37944 3.05766 9.19747L0.469778 6.74792C0.254778 6.53796 0.175944 6.23632 0.276994 5.95707C0.370161 5.68342 0.613111 5.48046 0.914111 5.43217L4.47594 4.92756C4.74828 4.89957 4.98478 4.7393 5.10661 4.50134L6.67611 1.35893C6.71194 1.28894 6.76211 1.22525 6.82016 1.16996L6.88394 1.12097C6.91261 1.08528 6.95561 1.05798 6.99933 1.02999L7.07744 1.00199L7.19928 0.953003H7.50099C7.77333 0.980998 8.00983 1.14127 8.13166 1.37222L9.72194 4.50134C9.83661 4.7323 10.0588 4.88627 10.3168 4.92756L13.8786 5.43217C14.1796 5.47416 14.4312 5.67712 14.5308 5.95707C14.6239 6.23632 14.5451 6.54496 14.3229 6.74792L11.6426 9.22546Z" fill="#FFC936"/>
</svg>
